<svg width="44" height="44" viewBox="0 0 44 44" fill="none" xmlns="http://www.w3.org/2000/svg">
<g id="Camera enhance" clip-path="url(#clip0_4_23)">
<path id="Vector" d="M36.6667 9.16667H30.855L28.5817 6.69167C27.9033 5.94 26.9133 5.5 25.8867 5.5H18.1133C17.0867 5.5 16.0967 5.94 15.4 6.69167L13.145 9.16667H7.33332C5.31666 9.16667 3.66666 10.8167 3.66666 12.8333V34.8333C3.66666 36.85 5.31666 38.5 7.33332 38.5H36.6667C38.6833 38.5 40.3333 36.85 40.3333 34.8333V12.8333C40.3333 10.8167 38.6833 9.16667 36.6667 9.16667ZM22 33C16.94 33 12.8333 28.8933 12.8333 23.8333C12.8333 18.7733 16.94 14.6667 22 14.6667C27.06 14.6667 31.1667 18.7733 31.1667 23.8333C31.1667 28.8933 27.06 33 22 33ZM22 16.5L19.7083 21.5417L14.6667 23.8333L19.7083 26.125L22 31.1667L24.2917 26.125L29.3333 23.8333L24.2917 21.5417L22 16.5Z" fill="#9A9494"/>
</g>
<defs>
<clipPath id="clip0_4_23">
<rect width="44" height="44" fill="white"/>
</clipPath>
</defs>
</svg>
