<svg width="35" height="35" viewBox="0 0 35 35" fill="none" xmlns="http://www.w3.org/2000/svg">
<g id="Settings voice" clip-path="url(#clip0_4_26)">
<path id="Vector" d="M10.2083 35H13.125V32.0833H10.2083V35ZM17.5 18.9583C19.9208 18.9583 21.8604 17.0042 21.8604 14.5833L21.875 5.83333C21.875 3.4125 19.9208 1.45833 17.5 1.45833C15.0792 1.45833 13.125 3.4125 13.125 5.83333V14.5833C13.125 17.0042 15.0792 18.9583 17.5 18.9583ZM16.0417 35H18.9583V32.0833H16.0417V35ZM21.875 35H24.7917V32.0833H21.875V35ZM26.3667 14.5833C25.7542 14.5833 25.2438 15.0208 25.1563 15.6187C24.6167 19.425 21.1896 22.0208 17.5 22.0208C13.8104 22.0208 10.3833 19.4396 9.84376 15.6187C9.75626 15.0208 9.23126 14.5833 8.63335 14.5833C7.87501 14.5833 7.29168 15.2542 7.39376 15.9979C8.0646 20.3146 11.7104 23.7271 16.0417 24.3833V27.7083C16.0417 28.5104 16.6979 29.1667 17.5 29.1667C18.3021 29.1667 18.9583 28.5104 18.9583 27.7083V24.3833C23.275 23.7417 26.9354 20.3146 27.6063 15.9979C27.7083 15.2542 27.125 14.5833 26.3667 14.5833Z" fill="#9A9494"/>
</g>
<defs>
<clipPath id="clip0_4_26">
<rect width="35" height="35" fill="white"/>
</clipPath>
</defs>
</svg>
